Coordinates
version=1
nRows=30
nColumns=30
inDegrees=yes

Units are S.I. units (second, meters, Newtons, ...)
Angles are in degrees.

endheader
time	floatyaw	floatroll	floatpitch	floatx	floaty	floatz	pro_sup_l	deviation_l	flexion_l	cmc_flexion_l	cmc_abduction_l	mp_flexion_l	ip_flexion_l	2mcp_flexion_l	2mcp_abduction_l	2pm_flexion_l	2md_flexion_l	3mcp_flexion_l	3mcp_abduction_l	3pm_flexion_l	3md_flexion_l	4mcp_flexion_l	4mcp_abduction_l	4pm_flexion_l	4md_flexion_l	5mcp_flexion_l	5mcp_abduction_l	5pm_flexion_l	5md_flexion_l
-0.995000	-1.782892	-2.032873	94.941017	-0.007847	-0.271852	0.012011	90.132284	1.201775	-1.178580	25.859392	3.450670	-17.888869	-31.689305	19.782761	5.662426	32.164092	20.482258	8.750750	4.216618	34.970327	22.341501	-1.755014	-3.762015	51.221042	33.467045	-21.753712	-7.880551	60.689483	50.043904
-0.985000	-1.782892	-2.032873	94.941017	-0.007867	-0.271846	0.012031	90.131916	1.199748	-1.167741	25.879103	3.415320	-17.899162	-31.711109	19.781114	5.665132	32.130260	20.483728	8.756515	4.202782	34.926483	22.320326	-1.758040	-3.749301	51.213403	33.438983	-21.821803	-7.883882	60.703760	50.028517
-0.975000	-1.782892	-2.032873	94.941017	-0.007886	-0.271849	0.012051	90.148058	1.201658	-1.171816	25.916223	3.370218	-17.914373	-31.756802	19.785033	5.669617	32.102358	20.492860	8.788693	4.192031	34.866896	22.294624	-1.739287	-3.740769	51.186670	33.424231	-21.848342	-7.883610	60.717475	50.011579
-0.965000	-1.782892	-2.032873	94.941017	-0.007901	-0.271860	0.012071	90.175498	1.206525	-1.186922	25.965808	3.320931	-17.932172	-31.818163	19.788074	5.675209	32.088895	20.508406	8.835763	4.184871	34.806145	22.267648	-1.709120	-3.736907	51.149452	33.420225	-21.841519	-7.878359	60.731487	49.995145
-0.955000	-1.782892	-2.032873	94.941017	-0.007909	-0.271874	0.012086	90.205638	1.212239	-1.206666	26.016365	3.277933	-17.948078	-31.879847	19.788057	5.681837	32.090435	20.527518	8.886282	4.180807	34.755989	22.242771	-1.678417	-3.736773	51.111916	33.422241	-21.815796	-7.868218	60.745240	49.980261
-0.945000	-1.782892	-2.032873	94.941017	-0.007909	-0.271886	0.012093	90.230298	1.216635	-1.224950	26.053056	3.252900	-17.956768	-31.923808	19.788073	5.689746	32.099974	20.545930	8.932387	4.178856	34.722364	22.222831	-1.655055	-3.739102	51.082993	33.426737	-21.785271	-7.854885	60.756384	49.969366
-0.935000	-1.782892	-2.032873	94.941017	-0.007904	-0.271890	0.012090	90.245172	1.218522	-1.238150	26.063837	3.253479	-17.954018	-31.935963	19.793351	5.698988	32.108624	20.559084	8.970236	4.178470	34.706136	22.209736	-1.642850	-3.743387	51.069104	33.433120	-21.758815	-7.840910	60.762387	49.967371
-0.925000	-1.782892	-2.032873	94.941017	-0.007893	-0.271885	0.012077	90.251246	1.218319	-1.245829	26.045245	3.279596	-17.938470	-31.911789	19.806968	5.709093	32.112249	20.563802	8.998765	4.180129	34.705905	22.204299	-1.641954	-3.750232	51.073943	33.443425	-21.738030	-7.828585	60.763097	49.980033
-0.915000	-1.782892	-2.032873	94.941017	-0.007877	-0.271871	0.012053	90.253266	1.217958	-1.249798	26.003825	3.323731	-17.912099	-31.857291	19.827841	5.719108	32.113958	20.559450	9.018373	4.185011	34.720252	22.206297	-1.649928	-3.760848	51.098509	33.460775	-21.718297	-7.819232	60.762253	50.010177
-0.905000	-1.782892	-2.032873	94.941017	-0.007856	-0.271850	0.012019	90.256234	1.219967	-1.252221	25.952043	3.375029	-17.879048	-31.784878	19.852179	5.728014	32.120743	20.547874	9.030228	4.193902	34.747953	22.214704	-1.663032	-3.776093	51.140782	33.487546	-21.692280	-7.813137	60.766528	50.054147
-0.895000	-1.782892	-2.032873	94.941017	-0.007828	-0.271822	0.011973	90.262317	1.226136	-1.254086	25.901701	3.424577	-17.843841	-31.707283	19.876617	5.735293	32.137218	20.532294	9.036061	4.206198	34.786610	22.227923	-1.677231	-3.795620	51.195115	33.523796	-21.654196	-7.809884	60.782082	50.101375
-0.885000	-1.782892	-2.032873	94.941017	-0.007794	-0.271789	0.011918	90.270178	1.236520	-1.255001	25.859284	3.468432	-17.810248	-31.633458	19.900210	5.741296	32.161391	20.515983	9.037981	4.219767	34.831417	22.243818	-1.688603	-3.817589	51.252148	33.566363	-21.602924	-7.808719	60.810223	50.138317
-0.875000	-1.782892	-2.032873	94.941017	-0.007759	-0.271752	0.011856	90.276801	1.249405	-1.254073	25.825308	3.506654	-17.780912	-31.567639	19.923791	5.747061	32.185337	20.501431	9.037875	4.231777	34.875612	22.259758	-1.693802	-3.839054	51.300586	33.609261	-21.542935	-7.808830	60.845018	50.154918
-0.865000	-1.782892	-2.032873	94.941017	-0.007727	-0.271714	0.011796	90.279981	1.262243	-1.250788	25.796503	3.539742	-17.756961	-31.510237	19.947580	5.753534	32.199883	20.490213	9.036371	4.239866	34.912841	22.273165	-1.691383	-3.856897	51.331346	33.645552	-21.483327	-7.809603	60.875383	50.149313
-0.855000	-1.782892	-2.032873	94.941017	-0.007705	-0.271680	0.011745	90.279503	1.272935	-1.245177	25.768762	3.565922	-17.737563	-31.459430	19.969338	5.760694	32.200011	20.483307	9.032176	4.242931	34.940010	22.282551	-1.683365	-3.868884	51.342333	33.669797	-21.435441	-7.810839	60.891594	50.127082
-0.845000	-1.782892	-2.032873	94.941017	-0.007693	-0.271653	0.011707	90.276690	1.280717	-1.237575	25.740072	3.581662	-17.720509	-31.413783	19.984849	5.767291	32.187778	20.481447	9.023004	4.241232	34.958532	22.288227	-1.674922	-3.874366	51.340242	33.679568	-21.409062	-7.812781	60.892553	50.095366
-0.835000	-1.782892	-2.032873	94.941017	-0.007689	-0.271633	0.011683	90.273514	1.286268	-1.228703	25.713124	3.584572	-17.704373	-31.375625	19.990561	5.771568	32.171250	20.485161	9.008183	4.236066	34.972802	22.291845	-1.670983	-3.874348	51.336960	33.675267	-21.407749	-7.815930	60.888583	50.056399
-0.825000	-1.782892	-2.032873	94.941017	-0.007688	-0.271618	0.011666	90.272357	1.291120	-1.220168	25.696289	3.575834	-17.690974	-31.352880	19.986399	5.772499	32.160196	20.494477	8.991162	4.229352	34.986766	22.294977	-1.671652	-3.870950	51.342058	33.658958	-21.425615	-7.820777	60.896872	50.005721
-0.815000	-1.782892	-2.032873	94.941017	-0.007682	-0.271604	0.011654	90.276158	1.296712	-1.214716	25.701244	3.560008	-17.685900	-31.356938	19.976448	5.770606	32.161006	20.508568	8.979400	4.223254	35.000915	22.297920	-1.670368	-3.866547	51.356309	33.633563	-21.448603	-7.827596	60.931554	49.936760
-0.805000	-1.782892	-2.032873	94.941017	-0.007670	-0.271590	0.011643	90.287899	1.303523	-1.215550	25.737368	3.542370	-17.696010	-31.396753	19.966677	5.767691	32.173740	20.525601	8.980798	4.219709	35.011875	22.299698	-1.657297	-3.862927	51.370985	33.603017	-21.460952	-7.836276	60.994306	49.848492
-0.795000	-1.782892	-2.032873	94.941017	-0.007655	-0.271580	0.011638	90.309000	1.310712	-1.224772	25.805612	3.525841	-17.725031	-31.472440	19.961147	5.765636	32.192876	20.542922	8.998610	4.219886	35.014934	22.299096	-1.626449	-3.860887	51.373770	33.572648	-21.453677	-7.846214	61.071382	49.750395
-0.785000	-1.782892	-2.032873	94.941017	-0.007643	-0.271578	0.011643	90.337526	1.316418	-1.241858	25.895601	3.509832	-17.769946	-31.572541	19.959297	5.765127	32.211038	20.557589	9.028332	4.223828	35.007745	22.295779	-1.581719	-3.860400	51.357305	33.548602	-21.429843	-7.856449	61.139122	49.660687
-0.775000	-1.782892	-2.032873	94.941017	-0.007640	-0.271591	0.011663	90.367757	1.318581	-1.263272	25.988276	3.491967	-17.820682	-31.677305	19.956215	5.765194	32.223272	20.567201	9.058979	4.230609	34.992517	22.290695	-1.537004	-3.861057	51.324346	33.535921	-21.403041	-7.866158	61.174816	49.598566
-0.765000	-1.782892	-2.032873	94.941017	-0.007650	-0.271618	0.011697	90.391972	1.315876	-1.283760	26.063279	3.471552	-17.863840	-31.766766	19.945838	5.763928	32.229298	20.570786	9.078351	4.239036	34.975115	22.285663	-1.509199	-3.862290	51.285903	33.536194	-21.389680	-7.875274	61.166998	49.575203
-0.755000	-1.782892	-2.032873	94.941017	-0.007670	-0.271655	0.011741	90.403707	1.308343	-1.298787	26.107307	3.452389	-17.888809	-31.829219	19.925171	5.759849	32.232615	20.569318	9.079265	4.248442	34.961797	22.282493	-1.508119	-3.863268	51.254151	33.546309	-21.399693	-7.884778	61.120186	49.588892
-0.745000	-1.782892	-2.032873	94.941017	-0.007696	-0.271694	0.011785	90.400563	1.297378	-1.306720	26.118739	3.442700	-17.892894	-31.864982	19.896938	5.752982	32.237311	20.565304	9.063021	4.258957	34.955926	22.282039	-1.530257	-3.862892	51.235690	33.559227	-21.431380	-7.896230	61.052448	49.626978
-0.735000	-1.782892	-2.032873	94.941017	-0.007719	-0.271726	0.011823	90.384930	1.285105	-1.309308	26.106005	3.451429	-17.882294	-31.883139	19.868758	5.744872	32.244837	20.561317	9.037985	4.270878	34.956827	22.283411	-1.561169	-3.860314	51.229962	33.566495	-21.473437	-7.910566	60.987729	49.673267
-0.725000	-1.782892	-2.032873	94.941017	-0.007735	-0.271747	0.011854	90.362719	1.273459	-1.310058	26.081209	3.482331	-17.868113	-31.893709	19.848903	5.737610	32.252929	20.558272	9.014291	4.283484	34.961038	22.283753	-1.585197	-3.855817	51.232998	33.561327	-21.512377	-7.926700	60.946667	49.716549
-0.715000	-1.782892	-2.032873	94.941017	-0.007745	-0.271759	0.011881	90.341326	1.263412	-1.311559	26.053496	3.529087	-17.859630	-31.900456	19.841138	5.732699	32.257088	20.554813	8.998228	4.294250	34.964345	22.279104	-1.595762	-3.851251	51.242158	33.541086	-21.540253	-7.940878	60.939266	49.755214
-0.705000	-1.782892	-2.032873	94.941017	-0.007753	-0.271764	0.011914	90.327761	1.254602	-1.313430	26.025960	3.574968	-17.858726	-31.898024	19.842290	5.730637	32.252871	20.548435	8.989990	4.299326	34.962445	22.266298	-1.599075	-3.849306	51.256879	33.508390	-21.558155	-7.947589	60.961010	49.794901
